<svg xmlns="http://www.w3.org/2000/svg" width="15" height="16" viewBox="0 0 15 16">
    <g fill="#000" fill-rule="nonzero" opacity=".3">
        <path d="M14.41 4.85l-5.99-.605.034 3.389 4.33.892-2.626 2.425 1.303-2.192L8.006 8.1l-.102-.468L0 7.242l2.006 8.676 9.022.082L15 9.26zM13.438 4.245L13.36 1.12 10.312.98l.097 2.928z"/>
        <path d="M8.081 3.757L10 3.808 9.94.12 6.875 0l.256 6.816 1.049.041zM6.563 6.857L6.35.395 3.438.327l.227 6.379zM2.813 6.857l-.11-5.808L0 .979l.123 5.725z"/>
    </g>
</svg>
